<?xml version="1.0" standalone="no"?>
<!DOCTYPE svg PUBLIC "-//W3C//DTD SVG 20010904//EN"
 "http://www.w3.org/TR/2001/REC-SVG-20010904/DTD/svg10.dtd">
<svg version="1.0" xmlns="http://www.w3.org/2000/svg"
 width="600.000000pt" height="600.000000pt" viewBox="0 0 600.000000 600.000000"
 preserveAspectRatio="xMidYMid meet">

<g transform="translate(0.000000,600.000000) scale(0.100000,-0.100000)"
fill="#042f2e" stroke="none">
<path d="M2805 5689 c-650 -52 -1249 -334 -1706 -806 -299 -309 -507 -662
-636 -1078 -115 -373 -142 -822 -73 -1223 93 -541 343 -1023 735 -1418 436
-438 972 -698 1592 -770 166 -20 523 -14 673 10 307 49 538 122 810 257 526
261 958 701 1209 1231 402 848 332 1841 -184 2613 -210 315 -493 591 -810 790
-118 75 -362 193 -500 243 -214 78 -466 131 -720 152 -137 11 -233 11 -390 -1z
m420 -79 c623 -53 1192 -321 1626 -766 246 -254 423 -521 552 -839 187 -459
237 -997 138 -1480 -36 -178 -100 -381 -120 -379 -6 1 -87 2 -181 3 l-170 1 0
85 0 85 38 0 c104 0 198 72 243 185 23 58 24 72 27 355 3 204 0 312 -8 350
-33 152 -132 250 -252 250 l-48 0 0 45 0 45 45 0 c84 0 170 55 201 129 21 50
20 377 -2 429 -20 49 -60 90 -109 113 -37 17 -71 19 -418 19 -319 0 -383 -2
-415 -15 -47 -20 -78 -50 -105 -100 -20 -37 -22 -55 -22 -230 0 -175 2 -193
22 -230 43 -81 105 -115 208 -115 l65 0 0 -45 0 -45 -67 0 c-122 0 -187 -54
-230 -189 -16 -49 -18 -97 -18 -376 0 -303 1 -324 22 -391 16 -48 35 -85 63
-117 46 -52 84 -67 171 -67 l56 0 13 -57 c7 -32 19 -71 27 -87 29 -56 102
-123 166 -152 l62 -28 283 3 c155 1 282 0 282 -3 0 -16 -64 -144 -120 -242
-351 -612 -937 -1054 -1620 -1224 -595 -147 -1226 -78 -1772 195 -737 370
-1246 1054 -1396 1875 -24 135 -26 165 -26 435 0 259 2 303 22 415 73 397 202
723 413 1036 245 365 619 687 1020 878 423 202 874 285 1334 246z m1315 -1715
l0 -195 -52 0 c-86 0 -88 5 -88 196 0 157 1 163 22 178 13 9 43 16 70 16 l48
0 0 -195z m368 -777 l2 -968 -34 0 c-46 0 -85 16 -119 48 -61 58 -61 55 -65
437 -2 193 -1 599 3 903 l7 553 102 -3 101 -3 3 -967z m246 951 l26 -20 0
-152 c-1 -173 -5 -186 -69 -194 l-41 -6 0 197 0 196 29 0 c15 0 40 -9 55 -21z
m-614 -909 l0 -140 -81 0 -81 0 4 103 c3 63 11 116 21 140 16 37 16 37 76 37
l61 0 0 -140z m644 103 c31 -47 48 -123 44 -199 l-3 -59 -72 -3 -73 -3 0 151
0 150 40 0 c35 0 43 -5 64 -37z m-646 -590 l2 -193 -58 0 c-57 0 -59 1 -77 38
-15 30 -20 65 -23 180 -2 78 -1 149 2 158 5 12 21 14 78 12 l73 -3 3 -192z
m686 47 c-1 -91 -5 -135 -17 -160 -25 -55 -53 -80 -92 -80 l-35 0 0 185 0 186
73 -3 72 -3 -1 -125z"/>
<path d="M2825 5514 c-599 -62 -1099 -289 -1508 -683 -155 -149 -334 -371
-396 -488 l-12 -23 849 0 850 0 6 54 c4 29 20 81 37 116 16 35 28 65 26 67 -4
3 -255 52 -607 118 -429 80 -653 125 -659 131 -9 9 77 84 202 174 l108 79 52
-23 c29 -13 178 -81 332 -151 601 -272 617 -279 629 -269 75 55 96 71 111 80
13 7 16 15 9 26 -5 8 -132 147 -282 308 -150 162 -269 297 -265 301 16 16 395
99 452 99 4 0 20 -53 35 -117 15 -65 51 -221 80 -347 l53 -229 111 -1 c92 -1
113 2 117 14 2 8 29 130 60 270 63 289 86 392 91 401 4 7 151 -14 249 -37 73
-17 237 -64 244 -70 3 -3 -122 -143 -450 -503 l-104 -114 25 -16 c13 -9 39
-28 56 -43 17 -16 39 -28 48 -28 9 0 226 99 483 220 257 121 471 220 476 220
31 0 325 -236 310 -250 -4 -4 -98 -24 -208 -44 -110 -21 -267 -50 -350 -66
-405 -77 -525 -100 -585 -110 -106 -18 -101 -12 -64 -85 18 -35 36 -89 39
-120 l7 -55 829 0 c456 0 829 3 829 6 0 14 -114 178 -187 270 -227 281 -510
507 -838 669 -235 116 -483 194 -736 230 -109 16 -465 28 -554 19z"/>
<path d="M2970 4656 c-75 -17 -115 -39 -175 -100 -56 -56 -95 -139 -95 -201 0
-45 17 -45 63 -2 67 61 294 208 335 218 57 12 110 -7 139 -50 19 -29 23 -47
23 -117 l0 -84 71 0 71 0 -7 43 c-33 201 -229 337 -425 293z"/>
<path d="M3098 4515 c-52 -17 -264 -163 -309 -212 -50 -55 -53 -95 -9 -118 38
-20 54 -15 156 46 45 27 87 49 93 49 8 0 11 -329 11 -1209 0 -1138 1 -1210 18
-1230 25 -32 79 -31 107 1 22 26 22 26 28 674 10 993 12 1968 4 1981 -14 22
-61 31 -99 18z"/>
<path d="M750 4260 c-19 -19 -20 -33 -20 -310 0 -285 0 -290 22 -310 30 -27
79 -26 106 3 22 23 22 29 22 310 0 274 -1 288 -20 307 -12 12 -33 20 -55 20
-22 0 -43 -8 -55 -20z"/>
<path d="M1250 4260 c-18 -18 -20 -34 -21 -167 0 -82 -4 -196 -8 -255 -6 -93
-11 -112 -37 -155 -34 -55 -106 -114 -184 -151 -114 -53 -225 -162 -268 -263
-41 -96 -43 -131 -40 -701 3 -540 3 -548 24 -568 32 -32 82 -30 112 5 l24 28
-4 556 -3 556 27 57 c35 76 109 148 195 191 93 47 197 131 237 192 68 104 70
114 74 397 4 249 3 257 -17 277 -28 28 -84 28 -111 1z"/>
<path d="M3656 4259 c-23 -18 -26 -27 -26 -83 l0 -63 -104 -5 c-90 -4 -110 -8
-150 -32 -63 -37 -97 -93 -104 -171 -6 -77 9 -126 56 -177 51 -57 66 -62 187
-68 l110 -5 0 -45 0 -45 -102 -5 c-92 -5 -105 -8 -145 -35 -117 -82 -124 -266
-14 -363 45 -40 91 -52 194 -52 l82 0 0 -55 c0 -51 -2 -56 -27 -67 -129 -52
-221 -121 -268 -203 -62 -104 -65 -129 -65 -477 l0 -319 25 -24 c29 -30 74
-32 106 -6 l24 19 -3 304 c-4 294 -3 305 18 362 26 67 86 138 142 167 20 10
40 19 43 19 3 0 5 -191 5 -425 l0 -426 25 -24 c31 -32 69 -32 100 0 l25 24 0
421 c0 231 3 420 8 420 30 0 109 -76 140 -135 l27 -50 3 -327 3 -327 26 -21
c34 -26 68 -25 97 3 22 22 23 28 29 310 7 322 0 397 -50 490 -43 80 -127 159
-211 198 l-72 34 0 57 0 58 81 0 c45 0 99 5 120 11 180 54 203 325 36 416 -22
13 -63 19 -137 23 l-105 5 -3 48 -3 47 91 0 c128 0 188 29 230 110 47 91 31
206 -38 273 -48 47 -111 67 -209 67 l-73 0 0 54 c0 69 -6 83 -41 101 -37 20
-51 19 -83 -6z m298 -325 c21 -20 20 -83 -1 -106 -15 -16 -36 -18 -250 -18
-139 0 -242 4 -253 10 -27 15 -36 74 -16 105 l16 25 245 0 c208 0 246 -2 259
-16z m16 -544 c28 -28 26 -75 -5 -105 l-24 -25 -224 0 c-212 0 -226 1 -251 21
-31 24 -36 81 -9 111 15 16 36 18 255 18 225 0 239 -1 258 -20z"/>
<path d="M2194 4246 c-17 -13 -20 -31 -24 -173 l-5 -158 -151 -5 c-146 -5
-152 -6 -200 -35 -33 -21 -60 -48 -81 -85 l-33 -54 0 -610 c0 -596 0 -611 21
-652 11 -24 37 -57 56 -75 62 -54 94 -62 253 -67 93 -3 148 -8 152 -16 4 -6 8
-73 8 -149 0 -133 1 -139 25 -162 30 -30 64 -32 99 -4 l26 20 0 155 0 154 103
0 c139 0 198 18 259 79 80 80 79 70 76 737 l-3 579 -23 45 c-58 111 -103 133
-287 140 l-140 5 -5 151 c-4 131 -8 155 -24 173 -22 25 -73 28 -102 7z m-21
-803 c4 -174 7 -460 7 -635 l0 -318 -136 0 -136 0 -29 29 -29 29 0 577 0 577
29 29 29 29 130 0 129 0 6 -317z m423 284 l24 -28 0 -579 0 -578 -31 -26 c-29
-24 -37 -26 -138 -26 l-108 0 -7 188 c-4 143 -10 1030 -7 1075 1 5 55 7 122 5
118 -3 121 -4 145 -31z"/>
<path d="M1255 3375 l-25 -24 0 -665 c0 -365 3 -672 6 -681 9 -23 61 -47 87
-39 12 3 30 13 40 22 16 14 17 60 17 693 l0 678 -26 20 c-35 28 -69 26 -99 -4z"/>
<path d="M866 1843 c15 -27 51 -85 81 -130 l53 -83 895 0 c786 0 900 -2 933
-15 79 -34 125 -106 125 -197 0 -75 -39 -142 -103 -178 l-45 -25 -714 -5 -713
-5 78 -66 c274 -230 635 -410 989 -494 204 -48 281 -57 535 -62 214 -4 263 -2
385 16 177 27 359 72 500 123 113 41 339 147 410 192 l40 25 -425 1 c-481 0
-467 -2 -525 79 -62 88 -28 218 68 262 40 17 73 19 597 19 528 0 557 -1 598
-20 23 -10 45 -26 48 -35 3 -8 12 -15 19 -15 19 0 203 198 289 309 71 93 176
252 210 319 l17 32 -985 0 -984 0 -7 -29 c-6 -30 -44 -70 -84 -91 -54 -28
-145 22 -157 86 l-6 34 -1075 0 -1074 0 27 -47z m3446 -280 c22 -20 23 -61 1
-85 -15 -17 -42 -18 -449 -18 l-433 0 -15 22 c-21 30 -20 54 4 78 19 19 33 20
447 20 383 0 428 -2 445 -17z m-1312 -582 c14 -28 12 -52 -7 -73 -15 -17 -43
-18 -461 -18 -400 0 -447 2 -464 17 -22 20 -23 56 -2 77 14 14 70 16 469 16
439 0 455 -1 465 -19z"/>
<path d="M1147 1487 c10 -13 43 -53 73 -90 l55 -67 742 0 c467 0 751 4 768 10
37 14 60 73 44 112 -25 61 24 58 -877 58 l-823 0 18 -23z"/>
<path d="M3466 1158 c-9 -12 -16 -29 -16 -38 0 -9 7 -26 16 -38 l15 -22 475 0
475 0 64 53 c35 28 64 55 64 60 1 4 -242 7 -538 7 l-540 0 -15 -22z"/>
</g>
</svg>
