{
	"asset":{
		"generator":"Khronos glTF Blender I/O v3.5.30",
		"version":"2.0"
	},
	"extensionsUsed":[
		"KHR_materials_clearcoat",
		"KHR_materials_specular",
		"KHR_materials_ior"
	],
	"scene":0,
	"scenes":[
		{
			"name":"Scene",
			"nodes":[
				0
			]
		}
	],
	"nodes":[
		{
			"mesh":0,
			"name":"Text.002"
		}
	],
	"materials":[
		{
			"doubleSided":true,
			"extensions":{
				"KHR_materials_clearcoat":{
					"clearcoatFactor":0.8999999761581421,
					"clearcoatRoughnessFactor":0.029999999329447746
				},
				"KHR_materials_specular":{
					"specularColorFactor":[
						1.4820985090258736,
						1.4820985090258736,
						1.4820985090258736
					]
				},
				"KHR_materials_ior":{
					"ior":1.4500000476837158
				}
			},
			"name":"Material.001",
			"pbrMetallicRoughness":{
				"baseColorFactor":[
					0.6927971243858337,
					0.38525429368019104,
					0.8000000715255737,
					1
				],
				"roughnessFactor":0.15000002086162567
			}
		}
	],
	"meshes":[
		{
			"name":"Text.002",
			"primitives":[
				{
					"attributes":{
						"POSITION":0,
						"TEXCOORD_0":1,
						"NORMAL":2
					},
					"indices":3,
					"material":0
				}
			]
		}
	],
	"accessors":[
		{
			"bufferView":0,
			"componentType":5126,
			"count":4192,
			"max":[
				3.0913138389587402,
				0.11999999731779099,
				0.24766096472740173
			],
			"min":[
				-2.8141143321990967,
				-0.11999999731779099,
				-0.2892121970653534
			],
			"type":"VEC3"
		},
		{
			"bufferView":1,
			"componentType":5126,
			"count":4192,
			"type":"VEC2"
		},
		{
			"bufferView":2,
			"componentType":5126,
			"count":4192,
			"type":"VEC3"
		},
		{
			"bufferView":3,
			"componentType":5123,
			"count":12408,
			"type":"SCALAR"
		}
	],
	"bufferViews":[
		{
			"buffer":0,
			"byteLength":50304,
			"byteOffset":0,
			"target":34962
		},
		{
			"buffer":0,
			"byteLength":33536,
			"byteOffset":50304,
			"target":34962
		},
		{
			"buffer":0,
			"byteLength":50304,
			"byteOffset":83840,
			"target":34962
		},
		{
			"buffer":0,
			"byteLength":24816,
			"byteOffset":134144,
			"target":34963
		}
	],
	"buffers":[
		{
			"byteLength":158960,
			"uri":"data:application/octet-stream;base64,"
		}
	]
}
