{
	"asset":{
		"generator":"Khronos glTF Blender I/O v3.6.28",
		"version":"2.0"
	},
	"scene":0,
	"scenes":[
		{
			"name":"Scene",
			"nodes":[
				0
			]
		}
	],
	"nodes":[
		{
			"mesh":0,
			"name":"Text.004"
		}
	],
	"meshes":[
		{
			"name":"Text.003",
			"primitives":[
				{
					"attributes":{
						"POSITION":0,
						"NORMAL":1,
						"TEXCOORD_0":2
					},
					"indices":3
				}
			]
		}
	],
	"accessors":[
		{
			"bufferView":0,
			"componentType":5126,
			"count":1888,
			"max":[
				3.089475393295288,
				0.11999999731779099,
				0.2720276713371277
			],
			"min":[
				-2.761380195617676,
				-0.11999999731779099,
				-0.26484549045562744
			],
			"type":"VEC3"
		},
		{
			"bufferView":1,
			"componentType":5126,
			"count":1888,
			"type":"VEC3"
		},
		{
			"bufferView":2,
			"componentType":5126,
			"count":1888,
			"type":"VEC2"
		},
		{
			"bufferView":3,
			"componentType":5123,
			"count":5496,
			"type":"SCALAR"
		}
	],
	"bufferViews":[
		{
			"buffer":0,
			"byteLength":22656,
			"byteOffset":0,
			"target":34962
		},
		{
			"buffer":0,
			"byteLength":22656,
			"byteOffset":22656,
			"target":34962
		},
		{
			"buffer":0,
			"byteLength":15104,
			"byteOffset":45312,
			"target":34962
		},
		{
			"buffer":0,
			"byteLength":10992,
			"byteOffset":60416,
			"target":34963
		}
	],
	"buffers":[
		{
			"byteLength":71408,
			"uri":"data:application/octet-stream;base64,"
		}
	]
}
