{
	"asset":{
		"generator":"Khronos glTF Blender I/O v3.6.28",
		"version":"2.0"
	},
	"extensionsUsed":[
		"KHR_materials_clearcoat",
		"KHR_materials_specular",
		"KHR_materials_ior"
	],
	"scene":0,
	"scenes":[
		{
			"name":"Scene",
			"nodes":[
				0
			]
		}
	],
	"nodes":[
		{
			"mesh":0,
			"name":"Text.003"
		}
	],
	"materials":[
		{
			"doubleSided":true,
			"extensions":{
				"KHR_materials_clearcoat":{
					"clearcoatFactor":0.8999999761581421,
					"clearcoatRoughnessFactor":0.029999999329447746
				},
				"KHR_materials_specular":{
					"specularColorFactor":[
						1.4820985090258736,
						1.4820985090258736,
						1.4820985090258736
					]
				},
				"KHR_materials_ior":{
					"ior":1.4500000476837158
				}
			},
			"name":"Material.001",
			"pbrMetallicRoughness":{
				"baseColorFactor":[
					0.6927971243858337,
					0.38525429368019104,
					0.8000000715255737,
					1
				],
				"roughnessFactor":0.15000002086162567
			}
		}
	],
	"meshes":[
		{
			"name":"Text.002",
			"primitives":[
				{
					"attributes":{
						"POSITION":0,
						"NORMAL":1,
						"TEXCOORD_0":2
					},
					"indices":3,
					"material":0
				}
			]
		}
	],
	"accessors":[
		{
			"bufferView":0,
			"componentType":5126,
			"count":1888,
			"max":[
				1.3358848094940186,
				0.11999999731779099,
				0.8784365653991699
			],
			"min":[
				-1.3358850479125977,
				-0.11999999731779099,
				-0.8784366250038147
			],
			"type":"VEC3"
		},
		{
			"bufferView":1,
			"componentType":5126,
			"count":1888,
			"type":"VEC3"
		},
		{
			"bufferView":2,
			"componentType":5126,
			"count":1888,
			"type":"VEC2"
		},
		{
			"bufferView":3,
			"componentType":5123,
			"count":5496,
			"type":"SCALAR"
		}
	],
	"bufferViews":[
		{
			"buffer":0,
			"byteLength":22656,
			"byteOffset":0,
			"target":34962
		},
		{
			"buffer":0,
			"byteLength":22656,
			"byteOffset":22656,
			"target":34962
		},
		{
			"buffer":0,
			"byteLength":15104,
			"byteOffset":45312,
			"target":34962
		},
		{
			"buffer":0,
			"byteLength":10992,
			"byteOffset":60416,
			"target":34963
		}
	],
	"buffers":[
		{
			"byteLength":71408,
			"uri":"data:application/octet-stream;base64,"
		}
	]
}
